# xmcd
#
# Track frame offsets:
#	150
#	60905
#	112455
#
# Disc length: 2036 seconds
#
# Revision: 1
# Processed by: cddbd v1.5PL3 Copyright (c) Steve Scherf et al.
# Submitted via: audiograbber 1.82.01
#
DISCID=2407f203
DTITLE=Kenny Wayne Shepherd and Double Trouble - 2000-12-02 - The Showbox,.Seattl
DTITLE=e,Washington - Disc 2
DYEAR=1900
DGENRE=
TTITLE0=Kenny Wayne Shepherd and Double Trouble - Born Under A Bad Sign
TTITLE1=Kenny Wayne Shepherd and Double Trouble - Everyday I Have The Blues
TTITLE2=Kenny Wayne Shepherd and Double Trouble - All Along The Watchtower
EXTD=
EXTT0=
EXTT1=
EXTT2=
PLAYORDER=
